# xmcd
#
# Track frame offsets:
#	150
#	17587
#	42076
#	58600
#	73915
#	87349
#	101673
#	118518
#	136568
#	154220
#	169151
#	184318
#	199805
#	214510
#	229097
#
# Disc length: 3248 seconds
#
# Revision: 1
# Processed by: cddbd v1.5.2PL0 Copyright (c) Steve Scherf et al.
# Submitted via: EasyCDDAExtractor 7.0.3.1
#
DISCID=cb0cae0f
DTITLE=Various Artist - Hitz 2007 Vol-6
DYEAR=2007
DGENRE=Country
TTITLE0=Brad Paisley - Online
TTITLE1=Keith Urban - Everybody
TTITLE2=Montgomery Gentry - What Do You Think About That
TTITLE3=Taylor Swift - Our Song
TTITLE4=Chris Cagle - What Kinda Gone
TTITLE5=Trace Adkins - I Got My Game On
TTITLE6=Big and Rich - Between Raising Hell and Amazing Grace
TTITLE7=Little Big Town - I'm With The Band
TTITLE8=Eric Church - Sinners Like Me
TTITLE9=Gretchen Wilson - You Don't Have To Go Home
TTITLE10=Jack Ingram - Maybe She'll Get Lonely
TTITLE11=Jennifer Hanson - Joyride
TTITLE12=Van Zant - Goes Down Easy
TTITLE13=Jake Owen - Somethin About A Woman
TTITLE14=John Berry - A Woman Like You
EXTD=
EXTT0=
EXTT1=
EXTT2=
EXTT3=
EXTT4=
EXTT5=
EXTT6=
EXTT7=
EXTT8=
EXTT9=
EXTT10=
EXTT11=
EXTT12=
EXTT13=
EXTT14=
PLAYORDER=
